<svg xmlns="http://www.w3.org/2000/svg" xmlns:xlink="http://www.w3.org/1999/xlink" width="890" zoomAndPan="magnify" viewBox="0 0 667.5 667.499984" height="890" preserveAspectRatio="xMidYMid meet" version="1.0"><path fill="#d6a338" d="M 333.859375 59.304688 C 333.484375 61.519531 333.144531 62.105469 332.65625 61.363281 C 332.234375 60.714844 332.160156 61.515625 332.460938 63.515625 C 332.726562 65.265625 332.648438 66.703125 332.285156 66.703125 C 331.921875 66.707031 331.578125 68.039062 331.515625 69.664062 C 331.371094 73.597656 328.757812 81.542969 325.378906 88.328125 C 323.46875 92.164062 321.257812 95.128906 318.109375 98.070312 C 311.417969 104.328125 297.984375 110.875 294.25 109.699219 C 293.332031 109.410156 293.019531 109.546875 293.355469 110.085938 C 293.859375 110.902344 291.71875 111.304688 287.953125 111.097656 C 286.890625 111.039062 286.441406 111.316406 286.761719 111.828125 C 287.09375 112.367188 286.726562 112.511719 285.703125 112.242188 C 284.703125 111.980469 283.976562 112.242188 283.699219 112.960938 C 283.359375 113.855469 283.703125 114.007812 285.339844 113.683594 C 287.644531 113.226562 296.882812 115.253906 297.628906 116.382812 C 297.894531 116.777344 298.460938 116.886719 298.886719 116.625 C 299.734375 116.097656 306.507812 118.347656 311.585938 120.835938 C 315.402344 122.707031 322.578125 130.027344 321.8125 131.269531 C 321.515625 131.75 321.605469 131.929688 322.015625 131.675781 C 322.421875 131.425781 324.179688 133.894531 325.921875 137.164062 C 329.335938 143.566406 333.15625 157.035156 332.363281 159.863281 C 332 161.160156 332.070312 161.265625 332.691406 160.378906 C 333.34375 159.449219 333.480469 159.535156 333.488281 160.898438 C 333.496094 161.800781 333.890625 162.78125 334.367188 163.074219 C 334.871094 163.386719 335.027344 163.28125 334.742188 162.820312 C 334.050781 161.703125 335.042969 157.320312 335.871094 157.832031 C 336.253906 158.070312 336.367188 157.488281 336.121094 156.507812 C 335.597656 154.421875 338.808594 142.808594 341.382812 137.480469 C 345.316406 129.328125 360.191406 116.566406 365.265625 116.984375 C 365.632812 117.015625 366.164062 116.667969 366.445312 116.210938 C 366.730469 115.753906 367.609375 115.246094 368.402344 115.085938 C 369.199219 114.929688 370.804688 114.425781 371.972656 113.976562 C 373.140625 113.523438 374.355469 113.3125 374.671875 113.511719 C 374.988281 113.707031 377.40625 113.398438 380.042969 112.824219 C 382.679688 112.253906 384.394531 111.757812 383.855469 111.726562 C 383.316406 111.691406 383.089844 111.316406 383.355469 110.886719 C 383.671875 110.375 383.132812 110.285156 381.789062 110.621094 C 380.550781 110.933594 379.917969 110.851562 380.183594 110.417969 C 380.441406 110 379.015625 109.679688 376.765625 109.644531 C 374.632812 109.613281 372.777344 109.210938 372.621094 108.75 C 372.46875 108.289062 372.03125 108.105469 371.648438 108.339844 C 370.597656 108.988281 362.726562 106.503906 362.726562 105.523438 C 362.726562 105.054688 362.511719 104.890625 362.242188 105.15625 C 361.976562 105.421875 359.769531 104.582031 357.339844 103.285156 C 352.597656 100.757812 344.386719 92.613281 345.222656 91.261719 C 345.503906 90.804688 345.375 90.664062 344.933594 90.9375 C 343.898438 91.578125 338.394531 80.386719 336.886719 74.570312 C 336.246094 72.097656 335.917969 69.0625 336.15625 67.824219 C 336.441406 66.34375 336.355469 65.917969 335.902344 66.570312 C 335.003906 67.867188 334.207031 62.292969 334.78125 58.75 C 335.007812 57.351562 335.011719 56.207031 334.789062 56.207031 C 334.5625 56.207031 334.144531 57.601562 333.859375 59.304688 M 452.222656 119.609375 C 451.855469 121.578125 451.527344 122.035156 451.019531 121.296875 C 450.5625 120.632812 450.484375 121.117188 450.800781 122.71875 C 451.097656 124.226562 450.980469 125.15625 450.496094 125.15625 C 450.0625 125.15625 449.90625 125.664062 450.140625 126.28125 C 450.378906 126.898438 450.210938 127.40625 449.765625 127.40625 C 449.324219 127.40625 449.128906 127.84375 449.335938 128.382812 C 449.824219 129.652344 447.628906 134.898438 446.613281 134.898438 C 446.179688 134.898438 446.023438 135.214844 446.261719 135.601562 C 447.269531 137.230469 436.429688 146.601562 434.34375 145.90625 C 433.914062 145.761719 433.09375 146.113281 432.523438 146.683594 C 431.953125 147.257812 431.042969 147.554688 430.503906 147.351562 C 429.964844 147.144531 429.394531 147.363281 429.238281 147.835938 C 429.082031 148.304688 427.71875 148.660156 426.214844 148.617188 C 424.085938 148.554688 423.679688 148.738281 424.390625 149.425781 C 424.894531 149.917969 425.980469 150.382812 426.804688 150.464844 C 427.628906 150.546875 428.980469 150.761719 429.804688 150.941406 C 430.628906 151.125 431.742188 151.296875 432.28125 151.328125 C 432.824219 151.359375 433.054688 151.722656 432.800781 152.136719 C 432.535156 152.566406 433.230469 152.886719 434.441406 152.890625 C 438.367188 152.898438 444.757812 158.511719 447.710938 164.539062 C 448.820312 166.804688 449.523438 168.988281 449.277344 169.390625 C 449.027344 169.792969 449.222656 170.121094 449.707031 170.121094 C 450.21875 170.121094 450.421875 170.75 450.195312 171.621094 C 449.980469 172.445312 450.148438 173.121094 450.570312 173.121094 C 450.992188 173.121094 451.199219 173.878906 451.03125 174.804688 C 450.847656 175.816406 451.3125 177.066406 452.1875 177.921875 C 453.625 179.332031 453.640625 179.328125 453.214844 177.691406 C 452.777344 176.027344 455.214844 167.835938 457.375 163.707031 C 459.65625 159.347656 469.082031 151.542969 470.789062 152.597656 C 471.160156 152.828125 471.90625 152.644531 472.449219 152.195312 C 473.730469 151.132812 480.476562 149.105469 481.214844 149.558594 C 481.527344 149.753906 481.96875 149.617188 482.191406 149.253906 C 482.414062 148.890625 480.691406 148.625 478.363281 148.65625 C 475.636719 148.699219 474.019531 148.390625 473.824219 147.800781 C 473.65625 147.292969 473.21875 147.0625 472.855469 147.289062 C 471.367188 148.207031 459.695312 140.75 460.523438 139.410156 C 460.726562 139.074219 460.375 138.605469 459.742188 138.359375 C 457.972656 137.679688 453.941406 128.523438 454.554688 126.585938 C 454.902344 125.496094 454.800781 125.136719 454.238281 125.480469 C 453.363281 126.023438 453.007812 123.707031 453.308594 119.347656 C 453.53125 116.085938 452.851562 116.25 452.222656 119.609375 M 214.050781 118.832031 C 213.804688 119.476562 213.339844 119.84375 213.019531 119.644531 C 212.699219 119.449219 212.402344 120.675781 212.355469 122.378906 C 212.3125 124.078125 211.933594 125.585938 211.511719 125.722656 C 211.09375 125.863281 210.90625 126.574219 211.097656 127.300781 C 211.539062 128.992188 205.179688 141.332031 203.992188 141.082031 C 203.5 140.980469 203.183594 141.148438 203.285156 141.457031 C 203.386719 141.765625 203.136719 142.148438 202.722656 142.304688 C 202.3125 142.464844 201.5625 143.183594 201.058594 143.902344 C 200.019531 145.382812 194.339844 147.875 193.371094 147.273438 C 193.019531 147.058594 192.59375 147.304688 192.417969 147.820312 C 192.21875 148.425781 190.847656 148.714844 188.597656 148.632812 C 186.671875 148.5625 185.269531 148.785156 185.480469 149.128906 C 185.695312 149.476562 185.445312 149.929688 184.929688 150.140625 C 184.410156 150.347656 185.335938 150.550781 186.984375 150.589844 C 190.71875 150.675781 193.449219 151.375 192.984375 152.128906 C 192.792969 152.441406 193.414062 152.699219 194.371094 152.699219 C 196.445312 152.699219 201.597656 155.027344 201.597656 155.96875 C 201.597656 156.332031 202.097656 156.632812 202.707031 156.632812 C 205.726562 156.632812 213.394531 170.386719 212.625 174.417969 C 212.445312 175.351562 212.589844 176.117188 212.945312 176.117188 C 213.300781 176.117188 213.59375 176.707031 213.601562 177.429688 C 213.605469 178.152344 213.945312 179.246094 214.351562 179.863281 C 214.960938 180.789062 215.074219 180.722656 214.972656 179.492188 C 214.734375 176.558594 215.078125 175.273438 215.953125 175.816406 C 216.476562 176.136719 216.617188 176.019531 216.304688 175.519531 C 215.621094 174.410156 216.570312 170.773438 217.410156 171.289062 C 217.773438 171.515625 217.878906 171.207031 217.648438 170.605469 C 217.417969 170 218.128906 167.605469 219.230469 165.277344 C 221.835938 159.769531 228.980469 153.953125 234.640625 152.738281 C 235.222656 152.613281 235.898438 152.238281 236.144531 151.902344 C 236.390625 151.570312 238.246094 151.019531 240.269531 150.679688 C 242.289062 150.339844 243.5 150.023438 242.960938 149.976562 C 242.421875 149.925781 242.160156 149.59375 242.382812 149.234375 C 242.605469 148.875 241.386719 148.617188 239.675781 148.664062 C 237.960938 148.707031 236.441406 148.363281 236.285156 147.898438 C 236.128906 147.429688 235.394531 147.207031 234.648438 147.402344 C 233.90625 147.597656 232.742188 147.199219 232.0625 146.519531 C 231.382812 145.839844 230.828125 145.488281 230.828125 145.738281 C 230.828125 146.742188 226.847656 144.003906 223.285156 140.546875 C 219.40625 136.785156 216.570312 131.765625 216.34375 128.253906 C 216.273438 127.167969 215.875 126.039062 215.464844 125.746094 C 215.050781 125.449219 214.738281 123.511719 214.769531 121.433594 C 214.828125 117.359375 214.738281 117.039062 214.050781 118.832031 M 259.058594 211.8125 C 258.988281 211.867188 242.5 212.125 222.417969 212.390625 C 188.167969 212.839844 182.394531 213.121094 184.226562 214.257812 C 185.164062 214.839844 190.570312 241.929688 190.027344 243.34375 C 189.804688 243.921875 189.894531 244.230469 190.21875 244.027344 C 190.546875 243.824219 191.757812 248.78125 192.914062 255.042969 C 194.066406 261.304688 196.636719 274.753906 198.621094 284.929688 C 200.605469 295.109375 202.058594 304.214844 201.851562 305.164062 C 201.546875 306.546875 201.628906 306.667969 202.273438 305.769531 C 202.9375 304.835938 203.078125 304.933594 203.085938 306.332031 C 203.09375 307.261719 203.3125 308.019531 203.578125 308.019531 C 203.84375 308.019531 205.835938 306.5 208.007812 304.648438 C 210.179688 302.792969 212.097656 301.273438 212.273438 301.273438 C 212.449219 301.273438 214.082031 299.882812 215.902344 298.1875 C 217.722656 296.488281 224.605469 290.519531 231.203125 284.925781 C 237.796875 279.332031 247.070312 271.339844 251.8125 267.160156 C 266.007812 254.640625 303.824219 222.230469 309.058594 218.085938 C 309.84375 217.46875 311.574219 216.035156 312.910156 214.902344 C 314.242188 213.769531 315.796875 212.835938 316.363281 212.828125 C 317.167969 212.820312 317.144531 212.652344 316.261719 212.039062 C 315.519531 211.527344 305.632812 211.339844 287.160156 211.488281 C 271.773438 211.613281 259.128906 211.761719 259.058594 211.8125 M 350.738281 211.992188 C 350.738281 212.457031 351.027344 212.839844 351.382812 212.839844 C 351.734375 212.839844 353.378906 213.9375 355.035156 215.277344 C 357.945312 217.628906 383.992188 240.074219 385.65625 241.664062 C 387.40625 243.332031 395.597656 250.402344 401.03125 254.929688 C 404.167969 257.542969 410.707031 263.222656 415.566406 267.550781 C 420.425781 271.878906 429.699219 279.804688 436.179688 285.160156 C 442.65625 290.519531 451.257812 297.710938 455.292969 301.136719 C 462.871094 307.578125 463.847656 307.851562 463.902344 303.523438 C 463.921875 301.996094 464.070312 301.859375 464.710938 302.773438 C 465.347656 303.679688 465.417969 303.601562 465.074219 302.371094 C 464.84375 301.527344 465.496094 296.976562 466.527344 292.25 C 467.558594 287.527344 469.921875 274.558594 471.78125 263.425781 C 476.226562 236.785156 480.40625 215.578125 481.316406 214.996094 C 483 213.917969 479.664062 213.367188 470.359375 213.179688 C 464.953125 213.070312 451.929688 212.785156 441.417969 212.542969 C 391.277344 211.402344 350.738281 211.152344 350.738281 211.992188 M 326.621094 222.453125 C 323.046875 225.675781 317.65625 230.3125 314.632812 232.753906 C 311.613281 235.195312 308.976562 237.367188 308.769531 237.582031 C 308.4375 237.921875 300.523438 244.640625 295.277344 249.039062 C 294.25 249.902344 289.019531 254.507812 283.664062 259.273438 C 278.304688 264.039062 270.210938 270.949219 265.675781 274.628906 C 238.828125 296.425781 221.085938 311.832031 221.085938 313.351562 C 221.085938 313.628906 222.347656 313.570312 223.894531 313.222656 C 225.441406 312.871094 275.753906 312.5625 335.703125 312.535156 C 395.648438 312.507812 444.824219 312.359375 444.976562 312.207031 C 445.128906 312.054688 441.976562 309.109375 437.976562 305.664062 C 433.382812 301.707031 428.808594 297.726562 424.253906 293.722656 C 420.710938 290.601562 409.378906 281.007812 399.074219 272.40625 C 382.773438 258.796875 368.78125 246.835938 359.738281 238.777344 C 358.300781 237.496094 354.421875 234.113281 351.121094 231.257812 C 347.820312 228.40625 345.230469 225.707031 345.367188 225.261719 C 345.503906 224.820312 345.386719 224.683594 345.109375 224.964844 C 344.828125 225.242188 342.21875 223.472656 339.308594 221.03125 C 336.398438 218.585938 333.816406 216.585938 333.566406 216.585938 C 333.316406 216.585938 330.191406 219.226562 326.621094 222.453125 M 495.597656 218.835938 C 495.378906 219.660156 494.992188 220.335938 494.730469 220.339844 C 494.46875 220.339844 494.210938 221.929688 494.152344 223.871094 C 494.097656 225.808594 493.675781 227.523438 493.210938 227.675781 C 492.75 227.832031 492.5625 228.269531 492.800781 228.648438 C 493.21875 229.328125 490.796875 242.386719 483.226562 280.289062 C 481.125 290.800781 479.253906 300.324219 479.066406 301.453125 C 478.878906 302.582031 478.472656 303.351562 478.167969 303.164062 C 477.859375 302.972656 477.625 303.734375 477.644531 304.855469 C 477.660156 305.976562 477.40625 308.160156 477.074219 309.707031 L 476.476562 312.515625 L 519.464844 312.539062 C 543.109375 312.550781 568.273438 312.710938 575.382812 312.890625 C 582.492188 313.070312 588.308594 312.9375 588.308594 312.59375 C 588.308594 312.253906 586.03125 309.804688 583.25 307.152344 C 580.46875 304.5 565.558594 289.363281 550.117188 273.511719 C 534.671875 257.660156 517.390625 239.957031 511.707031 234.167969 C 506.023438 228.378906 501.375 223.214844 501.375 222.695312 C 501.375 222.171875 501.089844 221.921875 500.738281 222.136719 C 499.914062 222.648438 495.945312 218.515625 496.617188 217.847656 C 496.898438 217.566406 496.871094 217.335938 496.558594 217.335938 C 496.246094 217.335938 495.8125 218.011719 495.597656 218.835938 M 154.378906 235.339844 C 127.179688 263.554688 107.078125 283.671875 106.300781 283.457031 C 105.894531 283.34375 105.738281 283.539062 105.953125 283.886719 C 106.171875 284.238281 100.125 290.722656 92.519531 298.292969 C 84.914062 305.867188 78.691406 312.382812 78.691406 312.773438 C 78.691406 313.222656 88.246094 313.3125 104.359375 313.015625 C 118.476562 312.757812 143.40625 312.539062 159.761719 312.53125 L 189.492188 312.515625 L 189.367188 309.210938 C 189.296875 307.394531 189.042969 306.21875 188.808594 306.601562 C 188.570312 306.984375 188.003906 305.351562 187.546875 302.972656 C 187.089844 300.597656 185.859375 294.683594 184.816406 289.832031 C 181.085938 272.46875 176.761719 248.542969 177.117188 247.191406 C 177.316406 246.433594 177.226562 245.96875 176.921875 246.15625 C 176.167969 246.621094 172.164062 226.523438 172.804688 225.488281 C 173.082031 225.035156 172.996094 224.449219 172.609375 224.1875 C 172.222656 223.921875 171.585938 222.566406 171.195312 221.167969 L 170.488281 218.628906 Z M 79.28125 327.640625 C 80.125 327.972656 80.207031 328.167969 79.527344 328.203125 C 78.878906 328.234375 79.160156 328.785156 80.277344 329.671875 C 82.617188 331.53125 101.527344 350.664062 103.652344 353.324219 C 104.554688 354.457031 108.078125 358.109375 111.480469 361.445312 C 114.878906 364.777344 117.660156 367.96875 117.660156 368.535156 C 117.660156 369.097656 117.957031 369.378906 118.320312 369.15625 C 119.046875 368.707031 129.652344 379.609375 129.652344 380.804688 C 129.652344 381.214844 129.960938 381.363281 130.339844 381.128906 C 130.714844 380.894531 131.136719 381.015625 131.277344 381.398438 C 131.414062 381.777344 150.074219 400.878906 172.746094 423.84375 C 195.417969 446.804688 213.878906 465.890625 213.777344 466.25 C 213.675781 466.605469 213.84375 466.820312 214.152344 466.722656 C 215.1875 466.398438 297.464844 549.984375 297.503906 551.398438 C 297.515625 551.914062 297.789062 552.25 298.105469 552.148438 C 298.6875 551.960938 305.75 558.96875 305.792969 559.777344 C 305.808594 560.011719 306.671875 560.828125 307.71875 561.589844 C 309.566406 562.933594 309.609375 562.933594 309.378906 561.589844 C 309.25 560.828125 308.71875 559.757812 308.199219 559.207031 C 307.679688 558.660156 307.449219 557.902344 307.683594 557.523438 C 307.914062 557.144531 307.777344 556.832031 307.371094 556.832031 C 306.269531 556.832031 296.625 537.453125 297.234375 536.46875 C 297.523438 536 297.429688 535.820312 297.023438 536.070312 C 296.617188 536.320312 295.667969 535.109375 294.914062 533.378906 C 294.160156 531.644531 291.589844 526.207031 289.199219 521.292969 C 286.8125 516.378906 285.0625 512.027344 285.3125 511.621094 C 285.5625 511.214844 285.441406 511.085938 285.046875 511.332031 C 284.359375 511.757812 281.332031 505.824219 265.058594 472.144531 C 261.171875 464.109375 253.230469 447.804688 247.410156 435.910156 C 241.589844 424.019531 237.046875 413.933594 237.316406 413.5 C 237.582031 413.066406 237.5 412.878906 237.125 413.089844 C 236.496094 413.441406 213.859375 368.21875 213.414062 365.726562 C 213.304688 365.109375 213.003906 364.433594 212.742188 364.226562 C 212.484375 364.019531 208.316406 355.839844 203.488281 346.050781 C 198.65625 336.261719 194.445312 328.089844 194.132812 327.894531 C 193.816406 327.703125 167.558594 327.449219 135.777344 327.335938 C 104 327.222656 78.574219 327.359375 79.28125 327.640625 M 247.503906 327.324219 C 227.203125 327.429688 210.59375 327.738281 210.59375 328.007812 C 210.59375 328.277344 211.453125 329.964844 212.503906 331.757812 C 213.554688 333.550781 214.175781 335.40625 213.886719 335.875 C 213.589844 336.355469 213.6875 336.527344 214.109375 336.265625 C 214.785156 335.847656 228.859375 363.699219 244.714844 396.828125 C 247.867188 403.421875 260.832031 429.726562 273.519531 455.285156 C 286.210938 480.839844 298.347656 505.457031 300.496094 509.992188 C 302.644531 514.527344 308.429688 526.261719 313.351562 536.070312 C 318.277344 545.878906 322.074219 554.277344 321.792969 554.734375 C 321.480469 555.238281 321.621094 555.355469 322.140625 555.03125 C 322.894531 554.566406 323.175781 555.34375 322.957031 557.277344 C 322.929688 557.519531 323.488281 558.144531 324.195312 558.660156 C 324.90625 559.179688 325.246094 559.992188 324.953125 560.464844 C 324.660156 560.941406 324.796875 561.328125 325.257812 561.328125 C 325.875 561.328125 325.960938 530.492188 325.574219 444.230469 L 325.050781 327.128906 L 304.730469 327.128906 C 293.554688 327.128906 267.800781 327.21875 247.503906 327.324219 M 341.742188 327.296875 C 340.75 327.511719 340.632812 337.929688 340.742188 416.144531 C 340.8125 464.875 341.105469 517.039062 341.394531 532.066406 C 341.902344 558.253906 341.976562 559.28125 343.179688 556.953125 C 343.871094 555.621094 344.726562 554.792969 345.082031 555.117188 C 345.4375 555.441406 345.496094 555.300781 345.210938 554.800781 C 344.671875 553.859375 348.171875 546.160156 349.339844 545.714844 C 349.699219 545.578125 349.820312 545.175781 349.601562 544.820312 C 349.003906 543.855469 356.164062 529.878906 356.996094 530.390625 C 357.390625 530.632812 357.496094 530.484375 357.234375 530.054688 C 356.757812 529.285156 360.789062 520.628906 378.457031 484.511719 C 383.5 474.207031 389.988281 460.886719 392.875 454.910156 C 395.761719 448.933594 404.773438 430.382812 412.894531 413.691406 C 421.019531 396.996094 429.835938 378.617188 432.484375 372.84375 C 435.128906 367.074219 441.230469 354.511719 446.039062 344.929688 L 454.78125 327.503906 L 452.410156 327.511719 C 451.105469 327.515625 425.925781 327.414062 396.453125 327.285156 C 366.980469 327.15625 342.363281 327.164062 341.742188 327.296875 M 524.875 327.324219 L 471.554688 327.515625 L 469.0625 332.324219 C 467.691406 334.96875 466.363281 337.003906 466.109375 336.847656 C 465.859375 336.691406 465.648438 336.972656 465.644531 337.46875 C 465.640625 337.964844 464.546875 340.84375 463.214844 343.867188 C 459.78125 351.664062 442.886719 386.25 442.289062 386.707031 C 442.015625 386.914062 441.683594 387.589844 441.546875 388.210938 C 441.234375 389.648438 438.785156 394.78125 425.285156 422.308594 C 410.941406 451.566406 401.816406 470.359375 394.546875 485.636719 C 382.523438 510.898438 370.5 534.378906 369.875 533.8125 C 369.523438 533.488281 369.449219 533.601562 369.710938 534.0625 C 369.972656 534.523438 369.242188 536.886719 368.085938 539.308594 C 366.652344 542.320312 365.246094 545.339844 363.863281 548.371094 C 362.695312 550.933594 361.460938 552.855469 361.121094 552.644531 C 360.777344 552.433594 360.695312 552.777344 360.941406 553.414062 C 361.203125 554.097656 360.890625 554.761719 360.1875 555.03125 C 359.527344 555.285156 359.15625 555.761719 359.363281 556.09375 C 359.886719 556.941406 358.945312 559.148438 358.246094 558.714844 C 357.929688 558.519531 357.667969 559.113281 357.664062 560.03125 C 357.660156 561.285156 364.730469 554.585938 385.945312 533.226562 C 433.046875 485.804688 491.921875 425.832031 497.210938 419.878906 C 498.765625 418.128906 500.347656 416.890625 500.726562 417.125 C 501.101562 417.359375 501.320312 417.246094 501.207031 416.875 C 500.886719 415.835938 524.023438 391.96875 524.851562 392.484375 C 525.265625 392.738281 525.351562 392.554688 525.046875 392.0625 C 524.707031 391.511719 536.113281 379.515625 555.445312 360.082031 C 572.464844 342.976562 586.652344 328.507812 586.976562 327.925781 C 587.460938 327.0625 586.714844 326.894531 582.878906 327 C 580.300781 327.070312 554.199219 327.214844 524.875 327.324219 M 327.03125 553.835938 C 327.03125 558.164062 327.15625 559.933594 327.308594 557.769531 C 327.457031 555.605469 327.457031 552.066406 327.308594 549.902344 C 327.15625 547.734375 327.03125 549.507812 327.03125 553.835938 " fill-opacity="1" fill-rule="evenodd"/></svg>